<svg width="30" height="30" viewBox="0 0 30 30" fill="none" xmlns="http://www.w3.org/2000/svg">
<path d="M9.95483 3.13964C9.60545 3.48913 9.40918 3.96306 9.40918 4.45723C9.40918 4.9514 9.60545 5.42534 9.95483 5.77482L19.1798 14.9998L9.95483 24.2248C9.61535 24.5763 9.42751 25.0471 9.43175 25.5357C9.436 26.0243 9.632 26.4918 9.97753 26.8373C10.3231 27.1828 10.7905 27.3788 11.2791 27.3831C11.7678 27.3873 12.2385 27.1995 12.59 26.86L23.1326 16.3174C23.482 15.9679 23.6782 15.494 23.6782 14.9998C23.6782 14.5057 23.482 14.0317 23.1326 13.6822L12.59 3.13964C12.2405 2.79026 11.7666 2.59399 11.2724 2.59399C10.7782 2.59399 10.3043 2.79026 9.95483 3.13964Z" fill="white"/>
</svg>
