<svg width="45" height="46" viewBox="0 0 45 46" fill="none" xmlns="http://www.w3.org/2000/svg">
<rect width="45" height="46" rx="22.5" fill="url(#paint0_linear_209_1147)"/>
<path d="M18.7551 23.0591C18.7551 20.9402 20.4345 19.222 22.5067 19.222C24.579 19.222 26.2593 20.9402 26.2593 23.0591C26.2593 25.1779 24.579 26.8961 22.5067 26.8961C20.4345 26.8961 18.7551 25.1779 18.7551 23.0591ZM16.7265 23.0591C16.7265 26.3233 19.3143 28.9694 22.5067 28.9694C25.6992 28.9694 28.287 26.3233 28.287 23.0591C28.287 19.7948 25.6992 17.1487 22.5067 17.1487C19.3143 17.1487 16.7265 19.7948 16.7265 23.0591ZM27.165 16.9143C27.1649 17.1875 27.244 17.4546 27.3923 17.6818C27.5407 17.909 27.7516 18.0861 27.9984 18.1908C28.2451 18.2954 28.5167 18.3229 28.7788 18.2697C29.0408 18.2165 29.2816 18.085 29.4706 17.892C29.6596 17.6989 29.7883 17.4528 29.8405 17.1849C29.8928 16.917 29.8661 16.6393 29.764 16.3868C29.6618 16.1344 29.4888 15.9186 29.2667 15.7668C29.0446 15.6149 28.7835 15.5338 28.5163 15.5337H28.5158C28.1577 15.5338 27.8143 15.6793 27.561 15.9382C27.3077 16.1971 27.1653 16.5482 27.165 16.9143ZM17.959 32.4281C16.8615 32.377 16.265 32.1901 15.8686 32.0321C15.343 31.8229 14.9681 31.5738 14.5738 31.1712C14.1795 30.7686 13.9355 30.3855 13.7318 29.8481C13.5773 29.443 13.3945 28.8329 13.3446 27.7107C13.29 26.4974 13.2791 26.1329 13.2791 23.0591C13.2791 19.9854 13.2909 19.6219 13.3446 18.4076C13.3945 17.2854 13.5787 16.6765 13.7318 16.2701C13.9364 15.7327 14.1801 15.3493 14.5738 14.9462C14.9675 14.5431 15.3421 14.2935 15.8686 14.0852C16.2648 13.9272 16.8615 13.7403 17.959 13.6893C19.1456 13.6335 19.502 13.6223 22.5067 13.6223C25.5115 13.6223 25.8683 13.6344 27.0558 13.6893C28.1533 13.7404 28.7488 13.9287 29.1462 14.0852C29.6718 14.2935 30.0468 14.5436 30.441 14.9462C30.8353 15.3488 31.0784 15.7327 31.2831 16.2701C31.4376 16.6753 31.6204 17.2854 31.6703 18.4076C31.7249 19.6219 31.7358 19.9854 31.7358 23.0591C31.7358 26.1329 31.7249 26.4964 31.6703 27.7107C31.6203 28.8329 31.4366 29.4428 31.2831 29.8481C31.0784 30.3855 30.8348 30.769 30.441 31.1712C30.0473 31.5734 29.6718 31.8229 29.1462 32.0321C28.75 32.1902 28.1533 32.3771 27.0558 32.4281C25.8693 32.4839 25.5128 32.495 22.5067 32.495C19.5007 32.495 19.1452 32.4839 17.959 32.4281ZM17.8658 11.6185C16.6675 11.6743 15.8486 11.8686 15.1335 12.1532C14.3929 12.447 13.7659 12.8412 13.1394 13.4808C12.5129 14.1204 12.1284 14.7625 11.841 15.5198C11.5628 16.2514 11.3727 17.0883 11.3182 18.3136C11.2627 19.5409 11.25 19.9332 11.25 23.0591C11.25 26.1849 11.2627 26.5772 11.3182 27.8045C11.3727 29.0299 11.5628 29.8667 11.841 30.5983C12.1284 31.3552 12.513 31.998 13.1394 32.6373C13.7658 33.2766 14.3929 33.6703 15.1335 33.9649C15.85 34.2495 16.6675 34.4438 17.8658 34.4996C19.0667 34.5554 19.4498 34.5693 22.5067 34.5693C25.5637 34.5693 25.9474 34.5563 27.1477 34.4996C28.3461 34.4438 29.1644 34.2495 29.88 33.9649C30.6202 33.6703 31.2476 33.2769 31.8741 32.6373C32.5006 31.9977 32.8843 31.3552 33.1725 30.5983C33.4507 29.8667 33.6417 29.0298 33.6953 27.8045C33.7499 26.5763 33.7626 26.1849 33.7626 23.0591C33.7626 19.9332 33.7499 19.5409 33.6953 18.3136C33.6408 17.0882 33.4507 16.251 33.1725 15.5198C32.8843 14.7629 32.4996 14.1214 31.8741 13.4808C31.2486 12.8402 30.6202 12.447 29.8809 12.1532C29.1644 11.8686 28.346 11.6734 27.1486 11.6185C25.9483 11.5627 25.5646 11.5488 22.5076 11.5488C19.4507 11.5488 19.0667 11.5618 17.8658 11.6185Z" fill="white"/>
<defs>
<linearGradient id="paint0_linear_209_1147" x1="44.1351" y1="46" x2="-1.85379" y2="1.01087" gradientUnits="userSpaceOnUse">
<stop stop-color="#FBE18A"/>
<stop offset="0.21" stop-color="#FCBB45"/>
<stop offset="0.38" stop-color="#F75274"/>
<stop offset="0.52" stop-color="#D53692"/>
<stop offset="0.74" stop-color="#8F39CE"/>
<stop offset="1" stop-color="#5B4FE9"/>
</linearGradient>
</defs>
</svg>
