<svg width="86" height="118" viewBox="0 0 86 118" fill="none" xmlns="http://www.w3.org/2000/svg">
<path d="M43.4103 0H40.8345C33.3498 0 27.0077 5.79726 26.394 13.2064C26.394 13.2064 26.394 20.2767 26.4078 22.6991L33.3567 17.3872C33.3567 15.4021 33.3888 13.6208 33.4346 13.369C33.688 11.6021 34.5849 9.99102 35.9531 8.84472C38.2427 6.83445 42.8929 6.43606 46.1372 7.61749L52.1955 2.97648C49.6778 1.04652 46.5941 0.000379488 43.4218 0" fill="black"/>
<path d="M52.7911 65.7297L48.6561 62.5701C47.3445 63.5546 45.7417 64.0727 44.1021 64.0423H41.5171C39.7266 64.0772 37.9848 63.4586 36.6174 62.3022C35.2567 61.2098 34.3628 59.6406 34.1171 57.9131C34.0393 57.5009 34.0164 54.1787 34.0393 51.3717L30.5591 48.7112L27.1911 46.1445C27.0976 46.7376 27.0494 47.3369 27.0468 47.9373V53.7139C27.0468 57.4094 26.5088 61.1299 29.2861 64.9856C31.7932 68.6742 36.1869 71.1927 41.3339 71.1927H43.9097C45.8469 71.2089 47.7679 70.8397 49.5611 70.1066C51.3543 69.3736 52.9838 68.2912 54.3549 66.9226L52.7911 65.7297Z" fill="black"/>
<path d="M58.5812 52.4706C58.5812 55.7905 58.627 58.467 57.8439 61.0749L54.8217 58.767L51.5704 56.2736C51.6162 53.3979 51.5704 47.8021 51.5017 47.3854C51.2409 45.6723 50.3461 44.1197 48.9946 43.0351C47.5522 41.8239 45.1756 41.2172 42.8127 41.2264C40.4499 41.2355 38.0733 41.8239 36.6308 43.0351C36.2591 43.3445 35.9179 43.6887 35.6119 44.0632L35.1128 43.6785L30.1421 39.8755C31.5207 38.2001 33.2556 36.8532 35.2204 35.9328C35.3831 35.8534 35.5497 35.7824 35.7196 35.7199C35.2822 35.5504 34.8678 35.3673 34.4534 35.1681C31.9634 33.9514 29.8762 32.0438 28.4409 29.673L34.071 25.3617C34.6721 26.6447 35.6291 27.7279 36.8281 28.4825C38.0272 29.2371 39.4178 29.6312 40.8345 29.6181H43.4103C44.2676 29.6216 45.1193 29.4791 45.9289 29.1968L42.6296 25.8998L47.614 20.913L50.6821 23.9811C50.7439 23.7521 50.7897 23.498 50.8286 23.253C50.9591 22.502 50.9271 13.9504 50.8286 13.3757C50.7921 13.1352 50.7432 12.8968 50.6821 12.6613L56.4816 8.21265C57.2439 9.77812 57.7096 11.4712 57.8554 13.2063L57.8851 23.2141C57.7478 23.6422 57.8462 26.1906 56.0054 29.309L59.5108 32.8235L54.5194 37.808L51.1377 34.4102C50.674 34.7057 50.1922 34.9718 49.6952 35.207C49.5258 35.2917 49.3564 35.3696 49.1801 35.436C49.6174 35.5962 50.0478 35.7725 50.4623 35.9717C54.8491 38.0324 58.1393 42.1926 58.5445 47.438C58.6751 49.1094 58.5766 50.7969 58.5766 52.4751" fill="black"/>
<path d="M51.2663 87.7443C51.0373 84.7426 49.1507 82.3637 46.639 81.1823C46.2075 80.9757 45.7585 80.8079 45.2973 80.6809C44.5524 80.4693 43.782 80.3615 43.0077 80.3604H41.5332C40.6112 80.3621 39.6956 80.5136 38.8223 80.8091C38.5099 80.91 38.2041 81.0301 37.9065 81.1686C36.7805 81.6952 35.7863 82.4664 34.9964 83.4261L37.8401 85.6035L38.1263 85.8325C38.302 85.6185 38.4975 85.4215 38.7101 85.2441C39.5389 84.5572 40.8967 84.2046 42.2521 84.2092C43.6076 84.2137 44.9653 84.5526 45.7895 85.2441C46.563 85.8645 47.0754 86.7527 47.2251 87.7329C47.2686 87.9755 47.2915 91.1672 47.264 92.8203L49.1255 94.2468L50.8541 95.5679C51.312 94.0773 51.2754 92.5433 51.2754 90.6429C51.2754 89.6882 51.3327 88.722 51.2594 87.7649M47.9692 98.2101L45.6041 96.4013C44.8527 96.9643 43.935 97.2608 42.9962 97.2438H41.5172C40.4923 97.2637 39.4952 96.9097 38.7124 96.2479C37.9344 95.6242 37.4228 94.7278 37.2814 93.7408C37.2379 93.5118 37.2242 91.6046 37.2379 89.9973L35.2459 88.4747L33.3181 87.0002C33.2645 87.3395 33.2369 87.6824 33.2357 88.0259V91.3413C33.2357 93.4568 32.9266 95.5862 34.5156 97.7933C35.2884 98.903 36.3207 99.807 37.5226 100.427C38.7245 101.046 40.0596 101.363 41.4118 101.349H42.8863C43.9956 101.357 45.0954 101.145 46.1218 100.724C47.1481 100.303 48.0804 99.6817 48.8645 98.8969L47.9692 98.2101Z" fill="black"/>
<path d="M9.61609 100.87H0.686654V96.9438H9.45353C12.8879 96.9438 12.7895 91.7968 9.45353 91.7968C8.46442 91.7968 6.66251 91.7968 5.67569 91.7968C4.94944 91.816 4.22666 91.6902 3.5496 91.4268C2.87253 91.1634 2.25478 90.7676 1.73247 90.2627C1.21016 89.7577 0.793763 89.1537 0.507636 88.4859C0.221509 87.8181 0.0713921 87.1 0.0660649 86.3735C0.0607377 85.647 0.200308 84.9268 0.476611 84.2549C0.752913 83.583 1.1604 82.9729 1.67526 82.4603C2.19011 81.9478 2.80199 81.543 3.47511 81.2697C4.14824 80.9963 4.8691 80.86 5.59555 80.8685H14.5387V84.7998C14.4448 84.7998 5.58181 84.7998 5.48794 84.7998C3.65626 84.9257 3.59444 87.7121 5.48794 87.8427C5.64363 87.8541 8.82847 87.8427 9.45353 87.8427C10.3067 87.833 11.1529 87.9976 11.9403 88.3264C12.7276 88.6551 13.4396 89.141 14.0327 89.7545C18.1151 93.862 15.1775 100.779 9.60235 100.843" fill="black"/>
<path d="M22.4836 100.843V84.8044H16.2056V80.8755H32.693V84.8044H26.4332V100.843H22.4836Z" fill="black"/>
<path d="M62.4784 93.9376H57.0566V100.829H53.0864V80.864H62.4738C63.337 80.8506 64.1938 81.0144 64.9913 81.3452C65.7888 81.676 66.5099 82.1668 67.1102 82.7873C67.7383 83.4146 68.2319 84.1634 68.5609 84.9878C68.8898 85.8123 69.0472 86.6952 69.0234 87.5826C68.9996 88.47 68.7952 89.3432 68.4225 90.1489C68.0499 90.9546 67.5169 91.6758 66.8561 92.2685C67.5237 93.1823 67.8779 94.2874 67.8658 95.419V100.829H63.9597V95.419C63.9606 95.2242 63.9229 95.0312 63.8488 94.851C63.7747 94.6709 63.6656 94.5072 63.5279 94.3695C63.3901 94.2318 63.2265 94.1227 63.0463 94.0486C62.8662 93.9744 62.6731 93.9367 62.4784 93.9376ZM57.0566 89.9881H62.4784C62.8184 89.9967 63.1566 89.9351 63.4718 89.8071C63.787 89.679 64.0723 89.4873 64.31 89.244C64.7883 88.7542 65.0561 88.0968 65.0561 87.4123C65.0561 86.7277 64.7883 86.0704 64.31 85.5806C64.0628 85.3222 63.7623 85.1205 63.4295 84.9897C63.0966 84.8588 62.7392 84.8019 62.3822 84.8228H57.0566V89.9881Z" fill="black"/>
<path d="M85.7885 100.873H79.1487C77.2895 100.873 75.4029 100.465 73.8231 99.4486C72.5042 98.5925 71.4778 97.3545 70.881 95.8997C70.1941 94.2535 70.2651 92.5523 70.2651 90.8168C70.2651 88.9966 70.075 87.2428 71.1992 85.1363C71.9724 83.704 73.1729 82.5483 74.6336 81.8301C76.0414 81.1598 77.585 80.8236 79.1441 80.8479H85.784V84.7952H79.1487C75.8998 84.7952 74.2398 86.6635 74.194 88.9004H84.369V92.8179H74.2009C74.2513 95.064 75.8814 96.9232 79.1533 96.9232H85.7931L85.7885 100.873Z" fill="black"/>
<path d="M0.965254 106.1H2.11733L4.82627 112.717H4.91968L7.62862 106.1H8.7807V114.071H7.87772V108.015H7.79988L5.3089 114.071H4.43705L1.94608 108.015H1.86823V114.071H0.965254V106.1ZM13.0202 114.196C12.4805 114.196 12.007 114.067 11.5996 113.811C11.1948 113.554 10.8782 113.194 10.6499 112.732C10.4242 112.271 10.3113 111.731 10.3113 111.113C10.3113 110.491 10.4242 109.947 10.6499 109.482C10.8782 109.018 11.1948 108.657 11.5996 108.4C12.007 108.144 12.4805 108.015 13.0202 108.015C13.5599 108.015 14.0322 108.144 14.437 108.4C14.8443 108.657 15.1609 109.018 15.3867 109.482C15.615 109.947 15.7292 110.491 15.7292 111.113C15.7292 111.731 15.615 112.271 15.3867 112.732C15.1609 113.194 14.8443 113.554 14.437 113.811C14.0322 114.067 13.5599 114.196 13.0202 114.196ZM13.0202 113.371C13.4302 113.371 13.7675 113.266 14.0322 113.055C14.2969 112.845 14.4928 112.569 14.6199 112.226C14.747 111.884 14.8106 111.513 14.8106 111.113C14.8106 110.714 14.747 110.341 14.6199 109.996C14.4928 109.651 14.2969 109.372 14.0322 109.159C13.7675 108.947 13.4302 108.84 13.0202 108.84C12.6103 108.84 12.2729 108.947 12.0083 109.159C11.7436 109.372 11.5477 109.651 11.4206 109.996C11.2934 110.341 11.2298 110.714 11.2298 111.113C11.2298 111.513 11.2934 111.884 11.4206 112.226C11.5477 112.569 11.7436 112.845 12.0083 113.055C12.2729 113.266 12.6103 113.371 13.0202 113.371ZM17.2559 114.071V106.1H18.1744V109.043H18.2523C18.3197 108.939 18.4131 108.807 18.5325 108.646C18.6544 108.482 18.8283 108.337 19.054 108.21C19.2824 108.08 19.5912 108.015 19.9804 108.015C20.4838 108.015 20.9275 108.141 21.3115 108.393C21.6955 108.644 21.9952 109.001 22.2106 109.463C22.4259 109.925 22.5336 110.47 22.5336 111.098C22.5336 111.731 22.4259 112.28 22.2106 112.744C21.9952 113.206 21.6968 113.564 21.3154 113.818C20.9339 114.07 20.4941 114.196 19.9959 114.196C19.6119 114.196 19.3044 114.132 19.0735 114.005C18.8426 113.875 18.6648 113.729 18.5403 113.565C18.4157 113.399 18.3197 113.262 18.2523 113.153H18.1433V114.071H17.2559ZM18.1588 111.082C18.1588 111.534 18.225 111.932 18.3573 112.277C18.4897 112.62 18.683 112.888 18.9373 113.083C19.1916 113.275 19.5029 113.371 19.8714 113.371C20.2554 113.371 20.5759 113.27 20.8328 113.067C21.0922 112.862 21.2868 112.587 21.4166 112.242C21.5489 111.894 21.6151 111.508 21.6151 111.082C21.6151 110.662 21.5502 110.283 21.4205 109.946C21.2933 109.606 21.1 109.337 20.8405 109.14C20.5837 108.94 20.2606 108.84 19.8714 108.84C19.4977 108.84 19.1838 108.935 18.9295 109.124C18.6752 109.311 18.4832 109.573 18.3534 109.911C18.2237 110.245 18.1588 110.636 18.1588 111.082ZM23.9387 114.071V108.093H24.8572V114.071H23.9387ZM24.4057 107.097C24.2267 107.097 24.0723 107.036 23.9426 106.914C23.8154 106.792 23.7519 106.645 23.7519 106.474C23.7519 106.303 23.8154 106.156 23.9426 106.034C24.0723 105.912 24.2267 105.851 24.4057 105.851C24.5848 105.851 24.7379 105.912 24.865 106.034C24.9948 106.156 25.0596 106.303 25.0596 106.474C25.0596 106.645 24.9948 106.792 24.865 106.914C24.7379 107.036 24.5848 107.097 24.4057 107.097ZM27.4582 106.1V114.071H26.5396V106.1H27.4582ZM31.6471 114.196C31.0711 114.196 30.5742 114.069 30.1564 113.814C29.7412 113.558 29.4208 113.199 29.195 112.74C28.9719 112.278 28.8603 111.741 28.8603 111.129C28.8603 110.516 28.9719 109.977 29.195 109.51C29.4208 109.04 29.7348 108.674 30.1369 108.412C30.5417 108.147 31.014 108.015 31.5537 108.015C31.8651 108.015 32.1725 108.067 32.4761 108.171C32.7797 108.275 33.0561 108.443 33.3052 108.677C33.5543 108.908 33.7528 109.214 33.9007 109.595C34.0486 109.977 34.1225 110.446 34.1225 111.004V111.393H29.5142V110.599H33.1884C33.1884 110.262 33.1209 109.961 32.986 109.697C32.8537 109.432 32.6642 109.223 32.4177 109.07C32.1738 108.917 31.8858 108.84 31.5537 108.84C31.1878 108.84 30.8713 108.931 30.604 109.113C30.3393 109.292 30.1356 109.525 29.9929 109.813C29.8502 110.101 29.7789 110.41 29.7789 110.74V111.269C29.7789 111.72 29.8567 112.103 30.0124 112.417C30.1707 112.728 30.3899 112.966 30.6702 113.129C30.9504 113.29 31.276 113.371 31.6471 113.371C31.8884 113.371 32.1064 113.337 32.301 113.27C32.4982 113.199 32.6681 113.096 32.8109 112.958C32.9536 112.818 33.0638 112.644 33.1417 112.437L34.0291 112.686C33.9357 112.987 33.7787 113.251 33.5581 113.48C33.3376 113.705 33.0651 113.882 32.7408 114.009C32.4164 114.134 32.0519 114.196 31.6471 114.196ZM40.8598 114.18C40.3357 114.18 39.8842 114.084 39.5054 113.892C39.1265 113.7 38.8346 113.437 38.6296 113.102C38.4246 112.767 38.3221 112.385 38.3221 111.954C38.3221 111.622 38.3922 111.327 38.5323 111.07C38.675 110.811 38.8709 110.571 39.12 110.35C39.3717 110.127 39.661 109.904 39.988 109.681L41.1401 108.825C41.3658 108.677 41.5461 108.518 41.6811 108.35C41.8186 108.181 41.8874 107.961 41.8874 107.688C41.8874 107.486 41.7978 107.29 41.6188 107.1C41.4423 106.911 41.2101 106.816 40.9221 106.816C40.7197 106.816 40.5407 106.868 40.385 106.972C40.2319 107.073 40.1112 107.203 40.023 107.361C39.9374 107.517 39.8946 107.678 39.8946 107.844C39.8946 108.031 39.9452 108.22 40.0464 108.412C40.1502 108.602 40.2812 108.796 40.4395 108.996C40.6003 109.193 40.7664 109.396 40.9377 109.603L44.5963 114.071H43.4909L40.4706 110.428C40.1904 110.091 39.9361 109.785 39.7077 109.51C39.4794 109.235 39.2978 108.963 39.1628 108.696C39.0279 108.429 38.9605 108.14 38.9605 107.828C38.9605 107.47 39.0396 107.156 39.1979 106.886C39.3587 106.614 39.5832 106.402 39.8712 106.252C40.1618 106.099 40.5017 106.022 40.891 106.022C41.2906 106.022 41.6344 106.1 41.9224 106.256C42.2104 106.409 42.4323 106.613 42.5879 106.867C42.7436 107.119 42.8215 107.392 42.8215 107.688C42.8215 108.07 42.7268 108.4 42.5373 108.681C42.3479 108.961 42.0897 109.222 41.7628 109.463L40.1748 110.646C39.8167 110.911 39.5741 111.168 39.447 111.417C39.3198 111.666 39.2563 111.845 39.2563 111.954C39.2563 112.203 39.3211 112.435 39.4509 112.651C39.5806 112.866 39.7635 113.04 39.9997 113.172C40.2358 113.305 40.5121 113.371 40.8287 113.371C41.1297 113.371 41.4229 113.307 41.7083 113.18C41.9937 113.05 42.2519 112.863 42.4829 112.62C42.7164 112.376 42.9006 112.082 43.0355 111.74C43.1731 111.397 43.2418 111.012 43.2418 110.584H44.1292C44.1292 111.113 44.0683 111.545 43.9463 111.88C43.8243 112.215 43.6868 112.477 43.5337 112.666C43.3806 112.856 43.2574 112.997 43.164 113.09C43.1328 113.129 43.1043 113.168 43.0784 113.207C43.0524 113.246 43.0239 113.285 42.9927 113.324C42.7358 113.612 42.4115 113.827 42.0197 113.97C41.6279 114.11 41.2413 114.18 40.8598 114.18ZM48.8202 114.071V106.1H49.7855V113.215H53.4908V114.071H48.8202ZM56.6201 114.211C56.2413 114.211 55.8975 114.14 55.5887 113.997C55.2799 113.852 55.0347 113.643 54.8531 113.371C54.6715 113.096 54.5806 112.764 54.5806 112.374C54.5806 112.032 54.6481 111.754 54.783 111.541C54.918 111.326 55.0983 111.157 55.324 111.035C55.5498 110.913 55.7989 110.823 56.0713 110.763C56.3464 110.701 56.6227 110.651 56.9004 110.615C57.2636 110.568 57.5581 110.533 57.7839 110.51C58.0122 110.484 58.1783 110.441 58.2821 110.382C58.3885 110.322 58.4417 110.218 58.4417 110.07V110.039C58.4417 109.655 58.3366 109.357 58.1264 109.144C57.9188 108.931 57.6035 108.825 57.1806 108.825C56.7421 108.825 56.3983 108.921 56.1492 109.113C55.9001 109.305 55.7249 109.51 55.6237 109.728L54.7519 109.416C54.9076 109.053 55.1152 108.77 55.3746 108.568C55.6367 108.363 55.9221 108.22 56.2309 108.14C56.5423 108.057 56.8485 108.015 57.1495 108.015C57.3415 108.015 57.562 108.038 57.8111 108.085C58.0628 108.129 58.3054 108.221 58.539 108.361C58.7751 108.502 58.971 108.713 59.1267 108.996C59.2824 109.279 59.3602 109.658 59.3602 110.132V114.071H58.4417V113.262H58.3949C58.3327 113.391 58.2289 113.53 58.0836 113.678C57.9383 113.826 57.745 113.952 57.5036 114.056C57.2623 114.16 56.9678 114.211 56.6201 114.211ZM56.7602 113.386C57.1235 113.386 57.4297 113.315 57.6788 113.172C57.9305 113.029 58.1199 112.845 58.247 112.62C58.3768 112.394 58.4417 112.156 58.4417 111.907V111.067C58.4027 111.113 58.3171 111.156 58.1848 111.195C58.055 111.231 57.9045 111.264 57.7333 111.292C57.5646 111.318 57.3999 111.342 57.239 111.362C57.0807 111.381 56.9523 111.396 56.8537 111.409C56.6149 111.44 56.3918 111.491 56.1842 111.561C55.9792 111.628 55.8131 111.731 55.686 111.868C55.5615 112.003 55.4992 112.187 55.4992 112.421C55.4992 112.74 55.6172 112.981 55.8534 113.145C56.0921 113.306 56.3944 113.386 56.7602 113.386ZM61.1613 114.071V106.1H62.0798V109.043H62.1577C62.2252 108.939 62.3186 108.807 62.4379 108.646C62.5599 108.482 62.7337 108.337 62.9595 108.21C63.1878 108.08 63.4966 108.015 63.8858 108.015C64.3892 108.015 64.8329 108.141 65.2169 108.393C65.6009 108.644 65.9006 109.001 66.116 109.463C66.3314 109.925 66.4391 110.47 66.4391 111.098C66.4391 111.731 66.3314 112.28 66.116 112.744C65.9006 113.206 65.6022 113.564 65.2208 113.818C64.8394 114.07 64.3996 114.196 63.9014 114.196C63.5173 114.196 63.2099 114.132 62.9789 114.005C62.748 113.875 62.5703 113.729 62.4457 113.565C62.3212 113.399 62.2252 113.262 62.1577 113.153H62.0487V114.071H61.1613ZM62.0643 111.082C62.0643 111.534 62.1304 111.932 62.2628 112.277C62.3951 112.62 62.5884 112.888 62.8427 113.083C63.097 113.275 63.4084 113.371 63.7768 113.371C64.1608 113.371 64.4813 113.27 64.7382 113.067C64.9977 112.862 65.1923 112.587 65.322 112.242C65.4543 111.894 65.5205 111.508 65.5205 111.082C65.5205 110.662 65.4556 110.283 65.3259 109.946C65.1988 109.606 65.0054 109.337 64.746 109.14C64.4891 108.94 64.166 108.84 63.7768 108.84C63.4032 108.84 63.0892 108.935 62.8349 109.124C62.5806 109.311 62.3886 109.573 62.2589 109.911C62.1291 110.245 62.0643 110.636 62.0643 111.082ZM70.4441 108.093V108.871H67.3459V108.093H70.4441ZM68.2489 106.661H69.1675V112.359C69.1675 112.618 69.2051 112.813 69.2803 112.943C69.3582 113.07 69.4568 113.155 69.5761 113.199C69.6981 113.241 69.8265 113.262 69.9615 113.262C70.0627 113.262 70.1457 113.257 70.2106 113.246C70.2754 113.233 70.3273 113.223 70.3662 113.215L70.5531 114.04C70.4908 114.064 70.4039 114.087 70.2923 114.11C70.1807 114.136 70.0393 114.149 69.868 114.149C69.6086 114.149 69.3543 114.093 69.1052 113.982C68.8587 113.87 68.6537 113.7 68.4902 113.472C68.3293 113.244 68.2489 112.956 68.2489 112.608V106.661ZM74.1903 114.196C73.6506 114.196 73.177 114.067 72.7696 113.811C72.3649 113.554 72.0483 113.194 71.82 112.732C71.5942 112.271 71.4813 111.731 71.4813 111.113C71.4813 110.491 71.5942 109.947 71.82 109.482C72.0483 109.018 72.3649 108.657 72.7696 108.4C73.177 108.144 73.6506 108.015 74.1903 108.015C74.73 108.015 75.2022 108.144 75.607 108.4C76.0144 108.657 76.331 109.018 76.5567 109.482C76.785 109.947 76.8992 110.491 76.8992 111.113C76.8992 111.731 76.785 112.271 76.5567 112.732C76.331 113.194 76.0144 113.554 75.607 113.811C75.2022 114.067 74.73 114.196 74.1903 114.196ZM74.1903 113.371C74.6003 113.371 74.9376 113.266 75.2022 113.055C75.4669 112.845 75.6628 112.569 75.79 112.226C75.9171 111.884 75.9807 111.513 75.9807 111.113C75.9807 110.714 75.9171 110.341 75.79 109.996C75.6628 109.651 75.4669 109.372 75.2022 109.159C74.9376 108.947 74.6003 108.84 74.1903 108.84C73.7803 108.84 73.443 108.947 73.1783 109.159C72.9137 109.372 72.7177 109.651 72.5906 109.996C72.4635 110.341 72.3999 110.714 72.3999 111.113C72.3999 111.513 72.4635 111.884 72.5906 112.226C72.7177 112.569 72.9137 112.845 73.1783 113.055C73.443 113.266 73.7803 113.371 74.1903 113.371ZM78.3014 116.313V108.093H79.1888V109.043H79.2978C79.3652 108.939 79.4586 108.807 79.578 108.646C79.6999 108.482 79.8738 108.337 80.0995 108.21C80.3279 108.08 80.6367 108.015 81.0259 108.015C81.5293 108.015 81.973 108.141 82.357 108.393C82.741 108.644 83.0407 109.001 83.2561 109.463C83.4714 109.925 83.5791 110.47 83.5791 111.098C83.5791 111.731 83.4714 112.28 83.2561 112.744C83.0407 113.206 82.7423 113.564 82.3609 113.818C81.9794 114.07 81.5396 114.196 81.0414 114.196C80.6574 114.196 80.3499 114.132 80.119 114.005C79.8881 113.875 79.7103 113.729 79.5858 113.565C79.4612 113.399 79.3652 113.262 79.2978 113.153H79.2199V116.313H78.3014ZM79.2043 111.082C79.2043 111.534 79.2705 111.932 79.4028 112.277C79.5352 112.62 79.7285 112.888 79.9828 113.083C80.2371 113.275 80.5484 113.371 80.9169 113.371C81.3009 113.371 81.6214 113.27 81.8782 113.067C82.1377 112.862 82.3323 112.587 82.4621 112.242C82.5944 111.894 82.6606 111.508 82.6606 111.082C82.6606 110.662 82.5957 110.283 82.466 109.946C82.3388 109.606 82.1455 109.337 81.886 109.14C81.6292 108.94 81.3061 108.84 80.9169 108.84C80.5432 108.84 80.2293 108.935 79.975 109.124C79.7207 109.311 79.5287 109.573 79.3989 109.911C79.2692 110.245 79.2043 110.636 79.2043 111.082Z" fill="black"/>
</svg>
