<svg width="46" height="46" viewBox="0 0 46 46" fill="none" xmlns="http://www.w3.org/2000/svg">
<rect width="46" height="46" rx="23" fill="#FF0000"/>
<path d="M21.8749 11.6258C18.1413 12.0529 14.4209 15.1478 14.2674 19.5688C14.1709 22.2682 14.9189 24.2933 17.4262 24.8619C18.5143 22.8953 17.0752 22.4615 16.8515 21.0387C15.9324 15.2085 23.4148 11.2325 27.3305 15.3029C30.0396 18.1214 28.2562 26.7926 23.8865 25.8913C19.701 25.0305 25.9353 18.1281 22.5944 16.7728C19.8787 15.6715 18.4353 20.142 19.723 22.3626C18.9683 26.1812 17.3429 29.7796 18.001 34.5693C20.1354 32.9825 20.8549 29.9437 21.445 26.7746C22.5176 27.4421 23.0902 28.1367 24.459 28.2445C29.5066 28.6446 32.3254 23.0818 31.6366 17.9505C31.0246 13.4014 26.5934 11.0864 21.8749 11.6258Z" fill="white"/>
</svg>
