<svg width="28" height="28" viewBox="0 0 28 28" fill="none" xmlns="http://www.w3.org/2000/svg">
<path d="M8.9835 19.0168C9.19739 19.2307 9.46961 19.3377 9.80016 19.3377C10.1307 19.3377 10.4029 19.2307 10.6168 19.0168L14.0002 15.6335L17.4127 19.046C17.6266 19.2599 17.8941 19.3618 18.2153 19.3517C18.5358 19.3423 18.8029 19.2307 19.0168 19.0168C19.2307 18.8029 19.3377 18.5307 19.3377 18.2002C19.3377 17.8696 19.2307 17.5974 19.0168 17.3835L15.6335 14.0002L19.046 10.5877C19.2599 10.3738 19.3618 10.1062 19.3517 9.785C19.3423 9.46455 19.2307 9.19739 19.0168 8.9835C18.8029 8.76961 18.5307 8.66266 18.2002 8.66266C17.8696 8.66266 17.5974 8.76961 17.3835 8.9835L14.0002 12.3668L10.5877 8.95433C10.3738 8.74044 10.1066 8.63816 9.78616 8.6475C9.46494 8.65761 9.19739 8.76961 8.9835 8.9835C8.76961 9.19739 8.66266 9.46961 8.66266 9.80016C8.66266 10.1307 8.76961 10.4029 8.9835 10.6168L12.3668 14.0002L8.95433 17.4127C8.74044 17.6266 8.63855 17.8937 8.64866 18.2142C8.658 18.5354 8.76961 18.8029 8.9835 19.0168ZM14.0002 25.6668C12.3863 25.6668 10.8696 25.3604 9.45016 24.7475C8.03072 24.1354 6.796 23.3043 5.746 22.2543C4.696 21.2043 3.86494 19.9696 3.25283 18.5502C2.63994 17.1307 2.3335 15.6141 2.3335 14.0002C2.3335 12.3863 2.63994 10.8696 3.25283 9.45016C3.86494 8.03072 4.696 6.796 5.746 5.746C6.796 4.696 8.03072 3.86455 9.45016 3.25166C10.8696 2.63955 12.3863 2.3335 14.0002 2.3335C15.6141 2.3335 17.1307 2.63955 18.5502 3.25166C19.9696 3.86455 21.2043 4.696 22.2543 5.746C23.3043 6.796 24.1354 8.03072 24.7475 9.45016C25.3604 10.8696 25.6668 12.3863 25.6668 14.0002C25.6668 15.6141 25.3604 17.1307 24.7475 18.5502C24.1354 19.9696 23.3043 21.2043 22.2543 22.2543C21.2043 23.3043 19.9696 24.1354 18.5502 24.7475C17.1307 25.3604 15.6141 25.6668 14.0002 25.6668Z" fill="black"/>
</svg>
