<svg width="46" height="46" viewBox="0 0 46 46" fill="none" xmlns="http://www.w3.org/2000/svg">
<rect width="46" height="46" rx="23" fill="#00D95F"/>
<path d="M11.5 33.6484L13.1502 27.5125C11.8194 25.1223 11.3965 22.3331 11.9593 19.6568C12.5221 16.9805 14.0328 14.5965 16.2141 12.9424C18.3954 11.2883 21.101 10.475 23.8345 10.6517C26.568 10.8284 29.1459 11.9833 31.0953 13.9044C33.0447 15.8256 34.2348 18.3841 34.4472 21.1106C34.6595 23.837 33.8799 26.5485 32.2514 28.7474C30.6229 30.9463 28.2548 32.4851 25.5815 33.0816C22.9082 33.678 20.1092 33.292 17.698 31.9944L11.5 33.6484ZM17.9968 29.6984L18.3802 29.9254C20.1266 30.9588 22.1665 31.3865 24.1819 31.1417C26.1972 30.8969 28.0749 29.9935 29.5222 28.5721C30.9696 27.1507 31.9053 25.2913 32.1836 23.2835C32.4618 21.2758 32.0671 19.2326 31.0607 17.4722C30.0544 15.7119 28.493 14.3333 26.62 13.5514C24.7469 12.7694 22.6674 12.628 20.7054 13.1492C18.7434 13.6703 17.0093 14.8248 15.7731 16.4327C14.537 18.0405 13.8683 20.0114 13.8713 22.0383C13.8697 23.7189 14.3353 25.367 15.2162 26.7991L15.4566 27.1947L14.534 30.6194L17.9968 29.6984Z" fill="white"/>
<path fill-rule="evenodd" clip-rule="evenodd" d="M27.3004 23.6138C27.0757 23.4329 26.8126 23.3055 26.5312 23.2414C26.2497 23.1774 25.9573 23.1783 25.6762 23.2441C25.2539 23.4192 24.9811 24.0808 24.7082 24.4116C24.6507 24.4909 24.5661 24.5465 24.4704 24.568C24.3747 24.5895 24.2745 24.5754 24.1885 24.5283C22.6424 23.9238 21.3465 22.8152 20.5112 21.3826C20.44 21.2932 20.4063 21.1797 20.4172 21.066C20.4281 20.9522 20.4828 20.8472 20.5697 20.7729C20.8741 20.4721 21.0975 20.0996 21.2194 19.6897C21.2465 19.2377 21.1427 18.7873 20.9205 18.3925C20.7488 17.839 20.4219 17.3461 19.9785 16.9721C19.7498 16.8694 19.4963 16.8349 19.2484 16.8729C19.0005 16.9109 18.769 17.0197 18.5817 17.1861C18.2565 17.4662 17.9984 17.8155 17.8264 18.2084C17.6543 18.6013 17.5728 19.0277 17.5877 19.4562C17.5887 19.6969 17.6192 19.9365 17.6786 20.1697C17.8295 20.73 18.0615 21.2654 18.3673 21.7588C18.5879 22.1367 18.8286 22.5026 19.0884 22.8549C19.9327 24.012 20.994 24.9945 22.2134 25.7477C22.8253 26.1305 23.4793 26.4417 24.1625 26.6752C24.8721 26.9964 25.6557 27.1197 26.4299 27.032C26.871 26.9653 27.2889 26.7914 27.6469 26.5256C28.0049 26.2599 28.292 25.9103 28.4829 25.5077C28.595 25.2645 28.6291 24.9927 28.5803 24.7294C28.4634 24.1911 27.7422 23.8732 27.3004 23.6138Z" fill="white"/>
</svg>
